# xmcd CD database file
#
# Track frame offsets:
#	150
#	38530
#	98462
#	126905
#	184685
#	239691
#	263657
#
# Disc length: 4310 seconds
#
# Revision: 0
# Processed by: cddbd v1.4PL0 Copyright (c) Steve Scherf et al.
# Submitted via: CDex 1.50
#
DISCID=5210d407
DTITLE=Archie Shepp - Eric Le Lann - Live in Paris
DYEAR=1996
DGENRE=Jazz
TTITLE0=Delicated to Bessie Smith
TTITLE1=Hope two
TTITLE2=The man I love
TTITLE3=Ask me now
TTITLE4=Circle
TTITLE5=Twins valse
TTITLE6=Things ain't what they used to be
EXTD=YEAR: 1996
EXTT0=
EXTT1=
EXTT2=
EXTT3=
EXTT4=
EXTT5=
EXTT6=
PLAYORDER=
